<svg width="32" height="32" viewBox="0 0 32 32" fill="none" xmlns="http://www.w3.org/2000/svg">
<path d="M15.9444 11.3089C15.9989 11.2946 16.0471 11.3152 16.0945 11.3384C16.3412 11.4609 17.007 13.4395 17.2653 13.8685C18.0035 15.092 19.3038 15.0804 20.3986 15.7167C20.5729 15.8177 20.824 15.924 20.6479 16.1653C20.5201 16.3405 18.8954 16.9142 18.5549 17.0805C16.8238 17.9277 17.1643 18.9161 16.3608 20.3121C16.2009 20.5901 15.9953 20.9037 15.7504 20.5114C15.2258 19.6722 15.1606 18.455 14.3813 17.6882C13.6002 16.9187 12.3597 16.8481 11.5339 16.294C11.4267 16.2225 11.3212 16.1483 11.2891 16.0134C11.306 15.9321 11.3552 15.865 11.4231 15.8186C11.9254 15.4807 12.9612 15.1965 13.5582 14.8963C14.1686 14.5897 14.4608 14.3171 14.7995 13.7201C14.9988 13.3689 15.7424 11.3599 15.9426 11.3089H15.9444Z" fill="#00BF53"/>
<path d="M16.0022 6.42716C10.7239 6.42716 6.42969 10.7214 6.42969 15.9996C6.42969 17.6905 6.87028 19.2804 7.64334 20.6603C8.0321 19.9042 8.71489 19.3251 9.54067 19.0713C9.09561 18.1401 8.84627 17.098 8.84627 15.9987C8.84627 12.053 12.0565 8.84374 16.0013 8.84374C16.701 8.84374 17.3785 8.94473 18.0184 9.13241C18.2239 8.26551 18.7843 7.53536 19.5368 7.1037C18.442 6.66668 17.2489 6.42627 16.0013 6.42627L16.0022 6.42716ZM24.125 10.9395C23.8301 11.7697 23.2001 12.4418 22.3984 12.7921C22.8846 13.7573 23.1581 14.8468 23.1581 15.9996C23.1581 19.9453 19.9479 23.1546 16.0031 23.1546C15.163 23.1546 14.3551 23.009 13.6052 22.7417C13.4354 23.5979 12.9233 24.3308 12.2173 24.791C13.3791 25.2933 14.6589 25.5721 16.0031 25.5721C21.2813 25.5721 25.5755 21.2779 25.5755 15.9996C25.5755 14.1434 25.0447 12.4087 24.125 10.9386V10.9395Z" fill="#00BF53"/>
<path d="M12.4505 22.0949C12.4505 22.1325 12.4497 22.17 12.447 22.2076C12.3934 23.1379 11.6837 23.8913 10.7731 24.0137C10.6882 24.0253 10.6015 24.0307 10.5139 24.0307C9.44413 24.0307 8.57812 23.1638 8.57812 22.0949C8.57812 22.0753 8.57813 22.0556 8.57902 22.036C8.60672 21.0994 9.29935 20.3308 10.2011 20.1842C10.303 20.1672 10.4075 20.1592 10.5139 20.1592C11.5828 20.1592 12.4497 21.0261 12.4497 22.0949H12.4505Z" fill="#00BF53"/>
<path d="M23.0551 9.87188C23.0551 10.7298 22.4975 11.4573 21.7253 11.7111C21.5349 11.7737 21.3312 11.8076 21.1194 11.8076C20.0496 11.8076 19.1836 10.9408 19.1836 9.87188C19.1836 9.77983 19.1898 9.68957 19.2024 9.60198C19.3337 8.66091 20.1416 7.93701 21.1194 7.93701C21.131 7.93701 21.1426 7.93701 21.1542 7.93701C22.0801 7.9531 22.8478 8.61891 23.0194 9.49831C23.0426 9.61986 23.0551 9.74408 23.0551 9.87188Z" fill="#00BF53"/>
<path d="M28.6325 6.17371C28.3465 6.98252 27.7424 7.64028 26.972 7.99955C28.6138 10.2454 29.5843 13.0115 29.5843 16C29.5843 23.4901 23.491 29.5834 16.0009 29.5834C13.4905 29.5834 11.1374 28.8988 9.11758 27.7066C8.88879 28.5306 8.33916 29.2197 7.6099 29.6308C10.1069 31.1742 12.99 32 16 32C20.2737 32 24.2918 30.3359 27.3143 27.3134C30.3359 24.2918 32.0009 20.2737 32.0009 15.9991C32.0009 12.3939 30.8167 8.97012 28.6316 6.17282L28.6325 6.17371ZM16.0009 2.41658C18.3916 2.41658 20.6401 3.0377 22.5938 4.12713C22.8583 3.3085 23.4455 2.63464 24.2051 2.25571C21.751 0.785566 18.9367 0 16.0009 0C11.7272 0 7.7091 1.66408 4.68659 4.68659C1.66497 7.70821 0 11.7263 0 16.0009C0 19.481 1.10373 22.7904 3.14406 25.5314C3.49349 24.7646 4.13786 24.1613 4.93236 23.8664C3.34871 21.6455 2.41658 18.9296 2.41658 16.0009C2.41658 8.51075 8.50986 2.41747 16 2.41747L16.0009 2.41658Z" fill="#00BF53"/>
<path d="M8.08128 26.8781C8.08128 26.9272 8.07949 26.9764 8.07592 27.0246C8.01247 27.9291 7.36989 28.6735 6.51551 28.8889C6.35285 28.93 6.18216 28.9515 6.00699 28.9515C4.86126 28.9515 3.93359 28.0229 3.93359 26.8781C3.93359 26.7628 3.94253 26.6493 3.9613 26.5385C4.10608 25.6582 4.80496 24.9656 5.68704 24.8288C5.79071 24.8127 5.89796 24.8047 6.00699 24.8047C7.15272 24.8047 8.08039 25.7332 8.08039 26.8781H8.08128Z" fill="#00BF53"/>
<path d="M27.7015 5.08532V5.10855C27.7015 6.0389 27.0893 6.82625 26.2447 7.089C26.0499 7.14977 25.8426 7.18195 25.6281 7.18195C24.4824 7.18195 23.5547 6.25339 23.5547 5.10855C23.5547 4.98165 23.5663 4.85831 23.5886 4.73766C23.7495 3.84217 24.4859 3.14687 25.402 3.04767C25.4762 3.03962 25.5521 3.03516 25.6281 3.03516C26.7658 3.03516 27.689 3.95031 27.7015 5.08532Z" fill="#00BF53"/>
</svg>
