<svg width="1200" height="630" viewBox="0 0 1200 630" fill="none" xmlns="http://www.w3.org/2000/svg">
<g clip-path="url(#clip0_1354_1127)">
<rect width="1200" height="630" fill="black"/>
<mask id="mask0_1354_1127" style="mask-type:luminance" maskUnits="userSpaceOnUse" x="81" y="-29" width="1038" height="688">
<path d="M1118.5 -29H81V658.667H1118.5V-29Z" fill="white"/>
</mask>
<g mask="url(#mask0_1354_1127)">
<path d="M850.921 335.559L868 335L850.921 334.441L856.278 328.722L850.559 334.079L850 317L849.441 334.079L843.722 328.722L849.079 334.441L832 335L849.079 335.559L843.722 341.278L849.441 335.921L850 353L850.559 335.921L856.278 341.278L850.921 335.559Z" fill="white"/>
<path d="M1081.14 80.3904L1090.38 80.0892L1081.14 79.7893L1084.04 76.7127L1080.95 79.5941L1080.64 70.4082L1080.34 79.5941L1077.25 76.7127L1080.15 79.7893L1070.91 80.0892L1080.15 80.3904L1077.25 83.4656L1080.34 80.5843L1080.64 89.7701L1080.95 80.5843L1084.04 83.4656L1081.14 80.3904Z" fill="white"/>
<path d="M1071.87 602.565L1089.75 601.984L1071.87 601.402L1077.47 595.448L1071.49 601.025L1070.9 583.246L1070.32 601.025L1064.33 595.448L1069.94 601.402L1052.05 601.984L1069.94 602.565L1064.33 608.519L1070.32 602.942L1070.9 620.721L1071.49 602.942L1077.47 608.519L1071.87 602.565Z" fill="white"/>
<path d="M992.5 229.11L1022.92 228.122L992.5 227.131L1002.04 217.003L991.854 226.49L990.86 196.244L989.864 226.49L979.677 217.003L989.219 227.131L958.797 228.122L989.219 229.11L979.677 239.238L989.864 229.753L990.86 259.998L991.854 229.753L1002.04 239.238L992.5 229.11Z" fill="white"/>
<path d="M651.26 272.133C651.26 285.809 652.316 287.831 657.016 283.157C652.316 287.831 654.351 288.88 668.105 288.88C654.349 288.88 652.316 289.93 657.016 294.603C652.316 289.93 651.26 291.953 651.26 305.628C651.26 291.951 650.205 289.93 645.504 294.603C650.205 289.93 648.17 288.88 634.414 288.88C648.17 288.88 650.203 287.831 645.504 283.157C650.205 287.831 651.26 285.809 651.26 272.133Z" fill="white"/>
<path d="M396.043 453C396.043 462.175 396.751 463.531 399.904 460.397C396.751 463.531 398.115 464.235 407.343 464.235C398.115 464.235 396.751 464.939 399.904 468.074C396.751 464.939 396.043 466.295 396.043 475.47C396.043 466.295 395.334 464.939 392.182 468.074C395.334 464.939 393.97 464.235 384.742 464.235C393.97 464.235 395.334 463.531 392.182 460.397C395.334 463.531 396.043 462.173 396.043 453Z" fill="white"/>
<path d="M223.129 32.7207C223.129 41.8956 223.837 43.2516 226.989 40.1172C223.837 43.2516 225.201 43.9558 234.429 43.9558C225.201 43.9558 223.837 44.66 226.989 47.7944C223.837 44.66 223.129 46.016 223.129 55.1909C223.129 46.016 222.42 44.66 219.268 47.7944C222.42 44.66 221.056 43.9558 211.828 43.9558C221.056 43.9558 222.42 43.2516 219.268 40.1172C222.42 43.2516 223.129 41.8942 223.129 32.7207Z" fill="white"/>
<path d="M700.731 558.238L701.964 560.6L704.338 561.824L701.964 563.049L700.731 565.411L699.499 563.049L697.125 561.824L699.499 560.6L700.731 558.238Z" fill="white"/>
<path d="M904.429 245.275L905.044 246.455L906.231 247.069L905.044 247.681L904.429 248.861L903.812 247.681L902.625 247.069L903.812 246.455L904.429 245.275Z" fill="white"/>
<path d="M377.083 587.037L377.873 590.436L381.291 591.221L377.873 592.006L377.083 595.405L376.293 592.006L372.875 591.221L376.293 590.436L377.083 587.037Z" fill="white"/>
<path d="M546.343 191.352L546.827 193.439L548.927 193.922L546.827 194.403L546.343 196.491L545.858 194.403L543.758 193.922L545.858 193.439L546.343 191.352Z" fill="white"/>
<path d="M1106.08 285.166L1107.31 287.526L1109.68 288.752L1107.31 289.977L1106.08 292.338L1104.84 289.977L1102.47 288.752L1104.84 287.526L1106.08 285.166Z" fill="white"/>
<path d="M361.279 290.545L361.896 291.725L363.083 292.338L361.896 292.95L361.279 294.13L360.663 292.95L359.477 292.338L360.663 291.725L361.279 290.545Z" fill="white"/>
<path d="M207.396 90.5566L208.185 93.9551L211.604 94.7404L208.185 95.5271L207.396 98.9255L206.606 95.5271L203.188 94.7404L206.606 93.9551L207.396 90.5566Z" fill="white"/>
<path d="M223.132 397.918L224.672 404.536L231.329 406.067L224.672 407.596L223.132 414.214L221.594 407.596L214.938 406.067L221.594 404.536L223.132 397.918Z" fill="white"/>
<path d="M974.794 491.895L975.585 495.293L979.002 496.08L975.585 496.865L974.794 500.263L974.004 496.865L970.586 496.08L974.004 495.293L974.794 491.895Z" fill="white"/>
<path d="M944.029 451.004L944.515 453.092L946.613 453.573L944.515 454.056L944.029 456.144L943.544 454.056L941.445 453.573L943.544 453.092L944.029 451.004Z" fill="white"/>
<path d="M984.029 441.004L984.515 443.092L986.613 443.573L984.515 444.056L984.029 446.144L983.544 444.056L981.445 443.573L983.544 443.092L984.029 441.004Z" fill="white"/>
<path d="M145.606 322.139L146.839 324.499L149.213 325.724L146.839 326.95L145.606 329.311L144.374 326.95L142 325.724L144.374 324.499L145.606 322.139Z" fill="white"/>
<path d="M198.419 305.859L199.651 308.221L202.025 309.446L199.651 310.672L198.419 313.032L197.186 310.672L194.812 309.446L197.186 308.221L198.419 305.859Z" fill="white"/>
<path d="M627.484 81.5527L628.099 82.7328L629.286 83.3462L628.099 83.9582L627.484 85.1382L626.867 83.9582L625.68 83.3462L626.867 82.7328L627.484 81.5527Z" fill="white"/>
<path d="M202.028 345.947L202.953 349.925L206.954 350.845L202.953 351.764L202.028 355.742L201.104 351.764L197.102 350.845L201.104 349.925L202.028 345.947Z" fill="white"/>
<path d="M1062.92 400.029L1063.71 403.428L1067.13 404.213L1063.71 404.998L1062.92 408.397L1062.13 404.998L1058.71 404.213L1062.13 403.428L1062.92 400.029Z" fill="white"/>
<path d="M255.075 -2.38281L255.865 1.01563L259.283 1.80233L255.865 2.58764L255.075 5.98609L254.285 2.58764L250.867 1.80233L254.285 1.01563L255.075 -2.38281Z" fill="white"/>
<path d="M415.365 334.535L415.851 336.622L417.951 337.104L415.851 337.587L415.365 339.673L414.88 337.587L412.781 337.104L414.88 336.622L415.365 334.535Z" fill="white"/>
<path d="M97.4278 311.104L101.34 318.599L108.879 322.489L101.34 326.379L97.4278 333.874L93.5143 326.379L85.9766 322.489L93.5143 318.599L97.4278 311.104Z" fill="white"/>
<path d="M415.372 247.064L416.605 249.425L418.98 250.65L416.605 251.875L415.372 254.235L414.139 251.875L411.766 250.65L414.139 249.425L415.372 247.064Z" fill="white"/>
<path d="M849.913 562.438L850.529 563.618L851.716 564.231L850.529 564.843L849.913 566.023L849.296 564.843L848.109 564.231L849.296 563.618L849.913 562.438Z" fill="white"/>
<path d="M181.806 247.064L184.249 257.569L194.816 259.998L184.249 262.427L181.806 272.933L179.363 262.427L168.797 259.998L179.363 257.569L181.806 247.064Z" fill="white"/>
<path d="M279.927 94.7402L280.717 98.1387L284.135 98.9254L280.717 99.7107L279.927 103.109L279.137 99.7107L275.719 98.9254L279.137 98.1387L279.927 94.7402Z" fill="white"/>
<path d="M367.677 -8.33984L368.467 -4.94139L371.885 -4.15608L368.467 -3.37076L367.677 0.0276843L366.887 -3.37076L363.469 -4.15608L366.887 -4.94139L367.677 -8.33984Z" fill="white"/>
<path d="M275.717 139.934L276.202 142.021L278.301 142.504L276.202 142.987L275.717 145.073L275.231 142.987L273.133 142.504L275.231 142.021L275.717 139.934Z" fill="white"/>
<path opacity="0.8" d="M960.947 173.668L962.991 177.581L966.928 179.612L962.991 181.644L960.947 185.556L958.904 181.644L954.969 179.612L958.904 177.581L960.947 173.668Z" fill="white"/>
<path opacity="0.8" d="M218.409 463.486L220.874 468.208L225.623 470.659L220.874 473.11L218.409 477.831L215.944 473.11L211.195 470.659L215.944 468.208L218.409 463.486Z" fill="white"/>
<path opacity="0.8" d="M510.231 608.904L511.464 611.266L513.838 612.491L511.464 613.715L510.231 616.077L508.999 613.715L506.625 612.491L508.999 611.266L510.231 608.904Z" fill="white"/>
<path opacity="0.8" d="M1027.86 16.3086L1028.47 17.4886L1029.66 18.102L1028.47 18.7141L1027.86 19.8941L1027.24 18.7141L1026.05 18.102L1027.24 17.4886L1027.86 16.3086Z" fill="white"/>
<path opacity="0.8" d="M307.848 520.75L308.772 524.728L312.774 525.648L308.772 526.566L307.848 530.545L306.922 526.566L302.922 525.648L306.922 524.728L307.848 520.75Z" fill="white"/>
<path opacity="0.8" d="M108.868 389.77L110.406 396.388L117.063 397.917L110.406 399.448L108.868 406.066L107.328 399.448L100.672 397.917L107.328 396.388L108.868 389.77Z" fill="white"/>
<path opacity="0.8" d="M199.747 433.09L200.538 436.488L203.957 437.275L200.538 438.06L199.747 441.459L198.957 438.06L195.539 437.275L198.957 436.488L199.747 433.09Z" fill="white"/>
<path opacity="0.8" d="M305.256 562.838L305.741 564.924L307.841 565.407L305.741 565.89L305.256 567.976L304.772 565.89L302.672 565.407L304.772 564.924L305.256 562.838Z" fill="white"/>
<path opacity="0.8" d="M784.362 361.922L786.405 365.835L790.342 367.866L786.405 369.899L784.362 373.812L782.318 369.899L778.383 367.866L782.318 365.835L784.362 361.922Z" fill="white"/>
<path opacity="0.8" d="M902.624 101.314L903.24 102.494L904.428 103.108L903.24 103.72L902.624 104.9L902.009 103.72L900.82 103.108L902.009 102.494L902.624 101.314Z" fill="white"/>
<path opacity="0.8" d="M503.026 110.305L503.952 114.284L507.952 115.202L503.952 116.122L503.026 120.1L502.102 116.122L498.102 115.202L502.102 114.284L503.026 110.305Z" fill="white"/>
<path opacity="0.8" d="M611.653 363.684L612.443 367.082L615.861 367.867L612.443 368.654L611.653 372.052L610.864 368.654L607.445 367.867L610.864 367.082L611.653 363.684Z" fill="white"/>
<path opacity="0.8" d="M234.436 543.297L235.226 546.695L238.644 547.481L235.226 548.266L234.436 551.664L233.645 548.266L230.227 547.481L233.645 546.695L234.436 543.297Z" fill="white"/>
<path opacity="0.8" d="M330.429 327.783L330.913 329.871L333.013 330.352L330.913 330.835L330.429 332.923L329.944 330.835L327.844 330.352L329.944 329.871L330.429 327.783Z" fill="white"/>
<path opacity="0.8" d="M1077.03 119.768L1078.26 122.129L1080.63 123.354L1078.26 124.58L1077.03 126.94L1075.8 124.58L1073.42 123.354L1075.8 122.129L1077.03 119.768Z" fill="white"/>
<path opacity="0.8" d="M691.069 441.832L692.301 444.192L694.675 445.418L692.301 446.643L691.069 449.003L689.836 446.643L687.461 445.418L689.836 444.192L691.069 441.832Z" fill="white"/>
<path opacity="0.8" d="M778.39 61.4473L779.005 62.6273L780.194 63.2407L779.005 63.8527L778.39 65.0328L777.773 63.8527L776.586 63.2407L777.773 62.6273L778.39 61.4473Z" fill="white"/>
<path opacity="0.8" d="M123.431 222.18L124.969 228.798L131.625 230.329L124.969 231.858L123.431 238.476L121.891 231.858L115.234 230.329L121.891 228.798L123.431 222.18Z" fill="white"/>
<path opacity="0.8" d="M425.435 584.531L426.225 587.93L429.643 588.716L426.225 589.502L425.435 592.9L424.645 589.502L421.227 588.716L424.645 587.93L425.435 584.531Z" fill="white"/>
<path opacity="0.8" d="M540.442 115.582L541.232 118.98L544.651 119.766L541.232 120.552L540.442 123.951L539.653 120.552L536.234 119.766L539.653 118.98L540.442 115.582Z" fill="white"/>
<path opacity="0.8" d="M828.818 266.012L829.304 268.098L831.402 268.581L829.304 269.064L828.818 271.15L828.333 269.064L826.234 268.581L828.333 268.098L828.818 266.012Z" fill="white"/>
<path opacity="0.8" d="M151.084 98.9258L154.997 106.42L162.535 110.309L154.997 114.2L151.084 121.694L147.172 114.2L139.633 110.309L147.172 106.42L151.084 98.9258Z" fill="white"/>
<path opacity="0.8" d="M784.317 339.588L785.55 341.948L787.925 343.173L785.55 344.399L784.317 346.759L783.086 344.399L780.711 343.173L783.086 341.948L784.317 339.588Z" fill="white"/>
<path opacity="0.8" d="M168.795 603.836L170.028 606.196L172.402 607.421L170.028 608.647L168.795 611.008L167.563 608.647L165.188 607.421L167.563 606.196L168.795 603.836Z" fill="white"/>
<path opacity="0.8" d="M581.929 194.113L582.544 195.293L583.731 195.907L582.544 196.519L581.929 197.7L581.312 196.519L580.125 195.907L581.312 195.293L581.929 194.113Z" fill="white"/>
<path opacity="0.8" d="M194.817 148.992L195.741 152.97L199.741 153.888L195.741 154.808L194.817 158.786L193.891 154.808L189.891 153.888L193.891 152.97L194.817 148.992Z" fill="white"/>
<path opacity="0.8" d="M1027.14 149.709L1027.93 153.107L1031.35 153.893L1027.93 154.679L1027.14 158.078L1026.35 154.679L1022.93 153.893L1026.35 153.107L1027.14 149.709Z" fill="white"/>
<path opacity="0.8" d="M262.302 199.531L263.093 202.93L266.511 203.715L263.093 204.502L262.302 207.9L261.512 204.502L258.094 203.715L261.512 202.93L262.302 199.531Z" fill="white"/>
<path opacity="0.8" d="M614.25 282.598L614.734 284.684L616.834 285.167L614.734 285.65L614.25 287.736L613.764 285.65L611.664 285.167L613.764 284.684L614.25 282.598Z" fill="white"/>
<path opacity="0.8" d="M598.88 388.324L600.112 390.686L602.486 391.91L600.112 393.135L598.88 395.497L597.647 393.135L595.273 391.91L597.647 390.686L598.88 388.324Z" fill="white"/>
<path opacity="0.8" d="M85.9657 250.654L87.1983 253.016L89.5735 254.24L87.1983 255.465L85.9657 257.827L84.7332 255.465L82.3594 254.24L84.7332 253.016L85.9657 250.654Z" fill="white"/>
<path opacity="0.8" d="M946.614 268.748L947.406 272.147L950.824 272.933L947.406 273.719L946.614 277.117L945.824 273.719L942.406 272.933L945.824 272.147L946.614 268.748Z" fill="white"/>
<path opacity="0.8" d="M778.38 445.797L779.17 449.195L782.588 449.981L779.17 450.766L778.38 454.164L777.59 450.766L774.172 449.981L777.59 449.195L778.38 445.797Z" fill="white"/>
<path opacity="0.8" d="M818.38 435.797L819.17 439.195L822.588 439.981L819.17 440.766L818.38 444.164L817.59 440.766L814.172 439.981L817.59 439.195L818.38 435.797Z" fill="white"/>
<path opacity="0.8" d="M102.343 193.678L102.829 195.764L104.927 196.247L102.829 196.73L102.343 198.816L101.858 196.73L99.7578 196.247L101.858 195.764L102.343 193.678Z" fill="white"/>
<path opacity="0.4" d="M1120.49 120.994L1122.53 124.907L1126.47 126.938L1122.53 128.97L1120.49 132.883L1118.44 128.97L1114.51 126.938L1118.44 124.907L1120.49 120.994Z" fill="white"/>
<path opacity="0.4" d="M142.003 529.752L144.467 534.473L149.216 536.923L144.467 539.374L142.003 544.095L139.538 539.374L134.789 536.923L139.538 534.473L142.003 529.752Z" fill="white"/>
<path opacity="0.4" d="M535.809 503.07L536.734 507.049L540.735 507.968L536.734 508.888L535.809 512.865L534.883 508.888L530.883 507.968L534.883 507.049L535.809 503.07Z" fill="white"/>
<path opacity="0.4" d="M890.079 601.008L891.617 607.626L898.274 609.157L891.617 610.686L890.079 617.304L888.539 610.686L881.883 609.157L888.539 607.626L890.079 601.008Z" fill="white"/>
<path opacity="0.4" d="M687.468 115.209L689.008 121.827L695.665 123.358L689.008 124.887L687.468 131.505L685.93 124.887L679.273 123.358L685.93 121.827L687.468 115.209Z" fill="white"/>
<path opacity="0.4" d="M795.936 158.518L796.726 161.916L800.144 162.701L796.726 163.488L795.936 166.886L795.145 163.488L791.727 162.701L795.145 161.916L795.936 158.518Z" fill="white"/>
<path opacity="0.4" d="M552.403 269.84L553.193 273.24L556.612 274.025L553.193 274.81L552.403 278.209L551.614 274.81L548.195 274.025L551.614 273.24L552.403 269.84Z" fill="white"/>
<path opacity="0.4" d="M631.084 23.6816L631.57 25.768L633.668 26.2508L631.57 26.7335L631.084 28.8199L630.599 26.7335L628.5 26.2508L630.599 25.768L631.084 23.6816Z" fill="white"/>
<path opacity="0.4" d="M966.918 395.562L968.961 399.477L972.896 401.508L968.961 403.538L966.918 407.452L964.874 403.538L960.938 401.508L964.874 399.477L966.918 395.562Z" fill="white"/>
<path opacity="0.4" d="M687.47 63.2344L689.936 67.9545L694.685 70.4054L689.936 72.8562L687.47 77.5777L685.005 72.8562L680.258 70.4054L685.005 67.9545L687.47 63.2344Z" fill="white"/>
<path opacity="0.4" d="M266.506 330.953L267.739 333.315L270.113 334.54L267.739 335.765L266.506 338.125L265.274 335.765L262.898 334.54L265.274 333.315L266.506 330.953Z" fill="white"/>
<path opacity="0.4" d="M1039.65 55.6816L1040.26 56.8631L1041.45 57.4751L1040.26 58.0871L1039.65 59.2685L1039.03 58.0871L1037.84 57.4751L1039.03 56.8631L1039.65 55.6816Z" fill="white"/>
<path opacity="0.4" d="M804.129 105.412L805.055 109.391L809.055 110.31L805.055 111.23L804.129 115.207L803.204 111.23L799.203 110.31L803.204 109.391L804.129 105.412Z" fill="white"/>
<path opacity="0.4" d="M245.218 430.504L246.758 437.122L253.415 438.653L246.758 440.182L245.218 446.8L243.68 440.182L237.023 438.653L243.68 437.122L245.218 430.504Z" fill="white"/>
<path opacity="0.4" d="M476.958 434.25L477.748 437.648L481.166 438.434L477.748 439.219L476.958 442.618L476.168 439.219L472.75 438.434L476.168 437.648L476.958 434.25Z" fill="white"/>
<path opacity="0.4" d="M164.093 353.076L164.577 355.163L166.677 355.645L164.577 356.128L164.093 358.214L163.608 356.128L161.508 355.645L163.608 355.163L164.093 353.076Z" fill="white"/>
<path opacity="0.4" d="M546.433 600.596L548.476 604.51L552.412 606.541L548.476 608.573L546.433 612.487L544.39 608.573L540.453 606.541L544.39 604.51L546.433 600.596Z" fill="white"/>
<path opacity="0.4" d="M846.317 141.488L847.55 143.848L849.925 145.074L847.55 146.299L846.317 148.659L845.085 146.299L842.711 145.074L845.085 143.848L846.317 141.488Z" fill="white"/>
<path opacity="0.4" d="M747.384 214.033L748.922 220.651L755.579 222.181L748.922 223.711L747.384 230.33L745.844 223.711L739.188 222.181L745.844 220.651L747.384 214.033Z" fill="white"/>
<path opacity="0.4" d="M519.419 39.7773L520.209 43.1758L523.627 43.9625L520.209 44.7478L519.419 48.1462L518.629 44.7478L515.211 43.9625L518.629 43.1758L519.419 39.7773Z" fill="white"/>
<path opacity="0.4" d="M771.382 299.119L771.866 301.207L773.966 301.69L771.866 302.172L771.382 304.259L770.897 302.172L768.797 301.69L770.897 301.207L771.382 299.119Z" fill="white"/>
<path opacity="0.4" d="M870.075 14.5176L871.308 16.8776L873.683 18.1044L871.308 19.3285L870.075 21.6899L868.843 19.3285L866.469 18.1044L868.843 16.8776L870.075 14.5176Z" fill="white"/>
<path opacity="0.4" d="M110.426 490.133L111.352 494.11L115.352 495.03L111.352 495.95L110.426 499.928L109.502 495.95L105.5 495.03L109.502 494.11L110.426 490.133Z" fill="white"/>
<path opacity="0.4" d="M811.819 198.812L812.609 202.211L816.027 202.998L812.609 203.783L811.819 207.181L811.028 203.783L807.609 202.998L811.028 202.211L811.819 198.812Z" fill="white"/>
<path opacity="0.4" d="M966.928 85.5859L967.718 88.9844L971.136 89.7697L967.718 90.555L966.928 93.9535L966.138 90.555L962.719 89.7697L966.138 88.9844L966.928 85.5859Z" fill="white"/>
<path opacity="0.4" d="M489.107 357.355L489.593 359.442L491.693 359.925L489.593 360.407L489.107 362.494L488.623 360.407L486.523 359.925L488.623 359.442L489.107 357.355Z" fill="white"/>
<path opacity="0.4" d="M137.451 9.95312L141.363 17.4473L148.901 21.3381L141.363 25.2276L137.451 32.7231L133.538 25.2276L126 21.3381L133.538 17.4473L137.451 9.95312Z" fill="white"/>
<path opacity="0.4" d="M671.091 432.812L672.323 435.174L674.697 436.399L672.323 437.625L671.091 439.985L669.858 437.625L667.484 436.399L669.858 435.174L671.091 432.812Z" fill="white"/>
<path opacity="0.4" d="M720.099 138.148L720.716 139.328L721.903 139.94L720.716 140.554L720.099 141.734L719.484 140.554L718.297 139.94L719.484 139.328L720.099 138.148Z" fill="white"/>
<path opacity="0.4" d="M558.975 351.561L559.765 354.959L563.183 355.746L559.765 356.531L558.975 359.929L558.184 356.531L554.766 355.746L558.184 354.959L558.975 351.561Z" fill="white"/>
<path opacity="0.4" d="M452.7 374.443L453.492 377.842L456.91 378.628L453.492 379.414L452.7 382.812L451.91 379.414L448.492 378.628L451.91 377.842L452.7 374.443Z" fill="white"/>
</g>
<path d="M1023.08 60.2578L1006.3 111.844H990.627L980.721 80.4505L970.372 111.844H954.701L937.922 60.2578H953.001L963.423 93.1999L974.364 60.2578H987.817L998.24 93.4931L1009.1 60.2578H1023.08Z" fill="#00BF53"/>
<path d="M1062.12 95.4099H1032.99C1034.17 99.4625 1037.65 101.821 1042.82 101.821C1046.74 101.821 1049.33 100.716 1052.06 98.3572L1059.46 106.022C1055.61 110.296 1050 112.507 1042.38 112.507C1028.11 112.507 1018.88 103.737 1018.88 91.7992C1018.88 79.862 1028.26 71.2383 1040.9 71.2383C1052.73 71.2383 1062.34 78.7548 1062.34 91.9457C1062.34 92.9778 1062.19 94.3047 1062.12 95.4099ZM1032.77 88.0401H1049.18C1048.44 83.839 1045.34 81.1869 1040.98 81.1869C1036.62 81.1869 1033.58 83.839 1032.77 88.0401Z" fill="#00BF53"/>
<path d="M1073.95 60.2578H1088.58V100.273H1113.27V111.844H1073.95V60.2578Z" fill="#00BF53"/>
<path d="M1156.12 95.4099H1127C1128.18 99.4625 1131.66 101.821 1136.83 101.821C1140.75 101.821 1143.34 100.716 1146.07 98.3572L1153.47 106.022C1149.62 110.296 1144 112.507 1136.39 112.507C1122.12 112.507 1112.88 103.737 1112.88 91.7992C1112.88 79.862 1122.27 71.2383 1134.91 71.2383C1146.74 71.2383 1156.35 78.7548 1156.35 91.9457C1156.35 92.9778 1156.2 94.3047 1156.12 95.4099ZM1126.78 88.0401H1143.19C1142.45 83.839 1139.35 81.1869 1134.99 81.1869C1130.62 81.1869 1127.59 83.839 1126.78 88.0401Z" fill="#00BF53"/>
<path d="M869.989 70.979C870.129 70.9422 870.253 70.9949 870.374 71.0546C871.008 71.3681 872.72 76.4384 873.384 77.5376C875.281 80.6727 878.623 80.643 881.437 82.2735C881.885 82.5323 882.53 82.8047 882.078 83.423C881.749 83.872 877.573 85.3421 876.698 85.768C872.249 87.939 873.124 90.4719 871.059 94.0489C870.648 94.7612 870.12 95.565 869.49 94.5595C868.142 92.4093 867.974 89.2902 865.971 87.3253C863.963 85.3536 860.775 85.1727 858.653 83.7528C858.377 83.5697 858.106 83.3796 858.023 83.0339C858.067 82.8253 858.193 82.6536 858.368 82.5346C859.659 81.6689 862.321 80.9406 863.856 80.1712C865.424 79.3857 866.176 78.6872 867.046 77.1576C867.558 76.2576 869.47 71.1095 869.984 70.979H869.989Z" fill="#00BF53"/>
<path d="M870.119 58.4671C856.553 58.4671 845.516 69.4708 845.516 82.9959C845.516 87.3286 846.648 91.4027 848.635 94.9385C849.634 93.0011 851.389 91.5173 853.512 90.8668C852.368 88.4806 851.727 85.8103 851.727 82.9935C851.727 72.8831 859.978 64.6594 870.117 64.6594C871.915 64.6594 873.657 64.9183 875.301 65.3992C875.83 63.1778 877.27 61.3068 879.204 60.2007C876.39 59.0809 873.323 58.4648 870.117 58.4648L870.119 58.4671ZM890.997 70.0295C890.239 72.1571 888.62 73.8791 886.559 74.7769C887.809 77.2502 888.511 80.0417 888.511 82.9959C888.511 93.1065 880.261 101.33 870.122 101.33C867.962 101.33 865.886 100.957 863.959 100.272C863.522 102.466 862.206 104.344 860.391 105.523C863.377 106.81 866.667 107.525 870.122 107.525C883.688 107.525 894.725 96.5211 894.725 82.9959C894.725 78.2395 893.361 73.7966 890.997 70.0295Z" fill="#00BF53"/>
<path d="M861.008 98.6166C861.008 98.7128 861.005 98.809 860.999 98.9051C860.861 101.289 859.037 103.219 856.696 103.533C856.478 103.563 856.255 103.577 856.03 103.577C853.281 103.577 851.055 101.355 851.055 98.6166C851.055 98.5661 851.055 98.5157 851.057 98.4654C851.128 96.0653 852.908 94.0959 855.226 93.7203C855.488 93.6769 855.757 93.6562 856.03 93.6562C858.777 93.6562 861.008 95.8776 861.008 98.6166Z" fill="#00BF53"/>
<path d="M888.255 67.2978C888.255 69.4963 886.822 71.3604 884.837 72.0108C884.348 72.1711 883.824 72.2582 883.28 72.2582C880.531 72.2582 878.305 70.0366 878.305 67.2978C878.305 67.062 878.321 66.8307 878.353 66.6061C878.691 64.1947 880.767 62.3398 883.28 62.3398C883.31 62.3398 883.34 62.3398 883.37 62.3398C885.749 62.3811 887.723 64.0872 888.164 66.3406C888.223 66.652 888.255 66.9703 888.255 67.2978Z" fill="#00BF53"/>
<path d="M902.592 57.8197C901.857 59.8922 900.305 61.5777 898.325 62.4983C902.544 68.2531 905.039 75.341 905.039 82.9989C905.039 102.192 889.378 117.805 870.126 117.805C863.674 117.805 857.626 116.051 852.434 112.996C851.846 115.108 850.434 116.873 848.559 117.927C854.977 121.882 862.387 123.998 870.124 123.998C881.108 123.998 891.436 119.734 899.204 111.989C906.971 104.246 911.25 93.9499 911.25 82.9965C911.25 73.7584 908.207 64.9853 902.59 57.8174L902.592 57.8197ZM870.126 48.1923C876.271 48.1923 882.05 49.7839 887.071 52.5755C887.751 50.4778 889.261 48.7511 891.213 47.7801C884.905 44.013 877.672 42 870.126 42C859.142 42 848.814 46.2641 841.046 54.0091C833.279 61.7517 829 72.0479 829 83.0011C829 91.9187 831.837 100.399 837.081 107.422C837.979 105.457 839.635 103.912 841.677 103.156C837.607 97.4652 835.211 90.5057 835.211 83.0011C835.211 63.8082 850.872 48.1946 870.124 48.1946L870.126 48.1923Z" fill="#00BF53"/>
<path d="M849.77 110.873C849.77 110.999 849.765 111.125 849.756 111.249C849.593 113.567 847.941 115.474 845.746 116.026C845.327 116.131 844.889 116.186 844.438 116.186C841.494 116.186 839.109 113.807 839.109 110.873C839.109 110.578 839.132 110.287 839.181 110.003C839.553 107.748 841.349 105.973 843.616 105.622C843.883 105.581 844.158 105.561 844.438 105.561C847.383 105.561 849.768 107.94 849.768 110.873H849.77Z" fill="#00BF53"/>
<path d="M900.197 55.0307V55.0903C900.197 57.4742 898.624 59.4918 896.453 60.165C895.952 60.3207 895.419 60.4032 894.868 60.4032C891.923 60.4032 889.539 58.0238 889.539 55.0903C889.539 54.7651 889.569 54.449 889.626 54.1399C890.04 51.8453 891.933 50.0636 894.287 49.8094C894.478 49.7888 894.673 49.7773 894.868 49.7773C897.792 49.7773 900.165 52.1223 900.197 55.0307Z" fill="#00BF53"/>
<path d="M317.26 254.59C317.26 257.67 315.16 259.84 312.08 259.84C308.79 259.84 306.41 257.18 306.41 252.98C306.41 247.1 310.33 242.55 315.93 241.85V245.21C312.92 245.77 310.82 247.66 310.82 250.11C311.38 249.9 312.01 249.76 312.78 249.76C315.3 249.76 317.26 251.58 317.26 254.59ZM331.12 254.59C331.12 257.67 329.02 259.84 325.94 259.84C322.65 259.84 320.27 257.18 320.27 252.98C320.27 247.1 324.19 242.55 329.79 241.85V245.21C326.78 245.77 324.61 247.66 324.61 250.18C325.17 249.9 325.8 249.76 326.57 249.76C329.09 249.76 331.12 251.58 331.12 254.59ZM352.529 273.84L335.239 242.83H345.249L355.329 261.45C356.099 262.85 356.589 263.97 357.149 265.23C357.779 263.97 358.059 263.13 358.969 261.45L368.979 242.83H378.709L361.489 273.84V294H352.529V273.84ZM374.517 276.64C374.517 265.86 382.287 258.44 392.997 258.44C403.707 258.44 411.477 265.86 411.477 276.64C411.477 287.42 403.707 294.84 392.997 294.84C382.287 294.84 374.517 287.42 374.517 276.64ZM383.057 276.64C383.057 282.94 387.117 287.21 392.997 287.21C398.877 287.21 402.937 282.94 402.937 276.64C402.937 270.34 398.877 266.07 392.997 266.07C387.117 266.07 383.057 270.34 383.057 276.64ZM440.876 259.42H449.416V294H441.506L440.876 289.38C438.776 292.67 434.296 294.91 429.676 294.91C421.696 294.91 417.006 289.52 417.006 281.05V259.42H425.546V278.04C425.546 284.62 428.136 287.28 432.896 287.28C438.286 287.28 440.876 284.13 440.876 277.55V259.42ZM479.936 259.28V267.19H476.786C470.626 267.19 466.776 270.48 466.776 277.2V294H458.236V259.49H466.286L466.776 264.53C468.246 261.1 471.536 258.79 476.156 258.79C477.346 258.79 478.536 258.93 479.936 259.28ZM526.074 276.36H514.804V294H505.844V242.83H526.074C536.364 242.83 543.014 249.55 543.014 259.56C543.014 269.43 536.294 276.36 526.074 276.36ZM524.324 250.81H514.804V268.38H524.184C530.344 268.38 533.634 265.09 533.634 259.49C533.634 253.89 530.274 250.81 524.324 250.81ZM563.052 294.91C552.762 294.91 545.552 287.42 545.552 276.71C545.552 265.86 552.622 258.37 562.772 258.37C573.132 258.37 579.712 265.3 579.712 276.08V278.67L553.672 278.74C554.302 284.83 557.522 287.91 563.192 287.91C567.882 287.91 570.962 286.09 571.942 282.8H579.852C578.382 290.36 572.082 294.91 563.052 294.91ZM562.842 265.37C557.802 265.37 554.722 268.1 553.882 273.28H571.242C571.242 268.52 567.952 265.37 562.842 265.37ZM608.247 259.28V267.19H605.097C598.937 267.19 595.087 270.48 595.087 277.2V294H586.547V259.49H594.597L595.087 264.53C596.557 261.1 599.847 258.79 604.467 258.79C605.657 258.79 606.847 258.93 608.247 259.28ZM611.367 283.5H619.487C619.557 286.51 621.797 288.4 625.717 288.4C629.707 288.4 631.877 286.79 631.877 284.27C631.877 282.52 630.967 281.26 627.887 280.56L621.657 279.09C615.427 277.69 612.417 274.75 612.417 269.22C612.417 262.43 618.157 258.37 626.137 258.37C633.907 258.37 639.157 262.85 639.227 269.57H631.107C631.037 266.63 629.077 264.74 625.787 264.74C622.427 264.74 620.467 266.28 620.467 268.87C620.467 270.83 622.007 272.09 624.947 272.79L631.177 274.26C636.987 275.59 639.927 278.25 639.927 283.57C639.927 290.57 633.977 294.91 625.437 294.91C616.827 294.91 611.367 290.29 611.367 283.5ZM644.4 276.64C644.4 265.86 652.17 258.44 662.88 258.44C673.59 258.44 681.36 265.86 681.36 276.64C681.36 287.42 673.59 294.84 662.88 294.84C652.17 294.84 644.4 287.42 644.4 276.64ZM652.94 276.64C652.94 282.94 657 287.21 662.88 287.21C668.76 287.21 672.82 282.94 672.82 276.64C672.82 270.34 668.76 266.07 662.88 266.07C657 266.07 652.94 270.34 652.94 276.64ZM696.669 294H688.129V259.42H696.039L696.739 263.9C698.909 260.4 703.109 258.37 707.799 258.37C716.479 258.37 720.959 263.76 720.959 272.72V294H712.419V274.75C712.419 268.94 709.549 266.14 705.139 266.14C699.889 266.14 696.669 269.78 696.669 275.38V294ZM739.639 294.91C732.289 294.91 727.809 290.64 727.809 284.13C727.809 277.76 732.429 273.77 740.619 273.14L750.979 272.37V271.6C750.979 266.91 748.179 265.02 743.839 265.02C738.799 265.02 735.999 267.12 735.999 270.76H728.719C728.719 263.27 734.879 258.37 744.259 258.37C753.569 258.37 759.309 263.41 759.309 273V294H751.819L751.189 288.89C749.719 292.46 745.029 294.91 739.639 294.91ZM742.439 288.47C747.689 288.47 751.049 285.32 751.049 280V278.18L743.839 278.74C738.519 279.23 736.489 280.98 736.489 283.78C736.489 286.93 738.589 288.47 742.439 288.47ZM776.309 294H767.839V241.92H776.309V294ZM789.537 252.49C786.597 252.49 784.287 250.18 784.287 247.31C784.287 244.44 786.597 242.2 789.537 242.2C792.337 242.2 794.647 244.44 794.647 247.31C794.647 250.18 792.337 252.49 789.537 252.49ZM785.267 294V259.42H793.807V294H785.267ZM828.741 294H800.811V287L818.031 266.56H800.811V259.42H828.741V266.49L811.241 286.86H828.741V294ZM850.776 294.91C840.486 294.91 833.276 287.42 833.276 276.71C833.276 265.86 840.346 258.37 850.496 258.37C860.856 258.37 867.436 265.3 867.436 276.08V278.67L841.396 278.74C842.026 284.83 845.246 287.91 850.916 287.91C855.606 287.91 858.686 286.09 859.666 282.8H867.576C866.106 290.36 859.806 294.91 850.776 294.91ZM850.566 265.37C845.526 265.37 842.446 268.1 841.606 273.28H858.966C858.966 268.52 855.676 265.37 850.566 265.37ZM888.481 294.91C878.471 294.91 872.241 287.56 872.241 276.85C872.241 266.07 878.541 258.37 888.971 258.37C893.801 258.37 898.071 260.4 900.241 263.83V241.92H908.711V294H900.871L900.311 288.61C898.211 292.6 893.731 294.91 888.481 294.91ZM890.371 287.07C896.321 287.07 900.171 282.8 900.171 276.57C900.171 270.34 896.321 266 890.371 266C884.421 266 880.781 270.41 880.781 276.57C880.781 282.73 884.421 287.07 890.371 287.07ZM316.63 337.83V380.74H338.05V389H307.67V337.83H316.63ZM358.862 389.91C348.572 389.91 341.362 382.42 341.362 371.71C341.362 360.86 348.432 353.37 358.582 353.37C368.942 353.37 375.522 360.3 375.522 371.08V373.67L349.482 373.74C350.112 379.83 353.332 382.91 359.002 382.91C363.692 382.91 366.772 381.09 367.752 377.8H375.662C374.192 385.36 367.892 389.91 358.862 389.91ZM358.652 360.37C353.612 360.37 350.532 363.1 349.692 368.28H367.052C367.052 363.52 363.762 360.37 358.652 360.37ZM392.305 389.91C384.955 389.91 380.475 385.64 380.475 379.13C380.475 372.76 385.095 368.77 393.285 368.14L403.645 367.37V366.6C403.645 361.91 400.845 360.02 396.505 360.02C391.465 360.02 388.665 362.12 388.665 365.76H381.385C381.385 358.27 387.545 353.37 396.925 353.37C406.235 353.37 411.975 358.41 411.975 368V389H404.485L403.855 383.89C402.385 387.46 397.695 389.91 392.305 389.91ZM395.105 383.47C400.355 383.47 403.715 380.32 403.715 375V373.18L396.505 373.74C391.185 374.23 389.155 375.98 389.155 378.78C389.155 381.93 391.255 383.47 395.105 383.47ZM442.065 354.28V362.19H438.915C432.755 362.19 428.905 365.48 428.905 372.2V389H420.365V354.49H428.415L428.905 359.53C430.375 356.1 433.665 353.79 438.285 353.79C439.475 353.79 440.665 353.93 442.065 354.28ZM456.386 389H447.846V354.42H455.756L456.456 358.9C458.626 355.4 462.826 353.37 467.516 353.37C476.196 353.37 480.676 358.76 480.676 367.72V389H472.136V369.75C472.136 363.94 469.266 361.14 464.856 361.14C459.606 361.14 456.386 364.78 456.386 370.38V389ZM493.336 347.49C490.396 347.49 488.086 345.18 488.086 342.31C488.086 339.44 490.396 337.2 493.336 337.2C496.136 337.2 498.446 339.44 498.446 342.31C498.446 345.18 496.136 347.49 493.336 347.49ZM489.066 389V354.42H497.606V389H489.066ZM514.97 389H506.43V354.42H514.34L515.04 358.9C517.21 355.4 521.41 353.37 526.1 353.37C534.78 353.37 539.26 358.76 539.26 367.72V389H530.72V369.75C530.72 363.94 527.85 361.14 523.44 361.14C518.19 361.14 514.97 364.78 514.97 370.38V389ZM545.69 370.94C545.69 360.86 552.27 353.3 562.14 353.3C567.32 353.3 571.38 355.47 573.41 359.18L573.9 354.42H581.81V387.25C581.81 398.8 574.88 406.01 563.68 406.01C553.74 406.01 546.95 400.34 545.9 391.1H554.44C555 395.58 558.43 398.24 563.68 398.24C569.56 398.24 573.34 394.53 573.34 388.79V383.05C571.17 386.27 566.9 388.3 561.93 388.3C552.13 388.3 545.69 380.95 545.69 370.94ZM554.3 370.73C554.3 376.54 558.01 380.88 563.61 380.88C569.49 380.88 573.13 376.75 573.13 370.73C573.13 364.85 569.56 360.79 563.61 360.79C557.94 360.79 554.3 365.06 554.3 370.73ZM610.425 370.31V337.83H619.385V369.75C619.385 377.1 623.375 381.16 630.655 381.16C637.935 381.16 641.995 377.03 641.995 369.75V337.83H650.955V370.31C650.955 382.28 643.115 389.84 630.655 389.84C618.265 389.84 610.425 382.35 610.425 370.31ZM669.257 389H660.717V354.42H668.627L669.327 358.9C671.497 355.4 675.697 353.37 680.387 353.37C689.067 353.37 693.547 358.76 693.547 367.72V389H685.007V369.75C685.007 363.94 682.137 361.14 677.727 361.14C672.477 361.14 669.257 364.78 669.257 370.38V389ZM706.207 347.49C703.267 347.49 700.957 345.18 700.957 342.31C700.957 339.44 703.267 337.2 706.207 337.2C709.007 337.2 711.317 339.44 711.317 342.31C711.317 345.18 709.007 347.49 706.207 347.49ZM701.937 389V354.42H710.477V389H701.937ZM729.101 389L715.381 354.42H724.481L730.501 370.31C731.971 374.44 733.161 378.01 733.581 379.9C734.071 377.73 735.331 374.09 736.801 370.31L743.101 354.42H751.921L737.501 389H729.101ZM770.591 389.91C760.301 389.91 753.091 382.42 753.091 371.71C753.091 360.86 760.161 353.37 770.311 353.37C780.671 353.37 787.251 360.3 787.251 371.08V373.67L761.211 373.74C761.841 379.83 765.061 382.91 770.731 382.91C775.421 382.91 778.501 381.09 779.481 377.8H787.391C785.921 385.36 779.621 389.91 770.591 389.91ZM770.381 360.37C765.341 360.37 762.261 363.1 761.421 368.28H778.781C778.781 363.52 775.491 360.37 770.381 360.37ZM815.786 354.28V362.19H812.636C806.476 362.19 802.626 365.48 802.626 372.2V389H794.086V354.49H802.136L802.626 359.53C804.096 356.1 807.386 353.79 812.006 353.79C813.196 353.79 814.386 353.93 815.786 354.28ZM818.906 378.5H827.026C827.096 381.51 829.336 383.4 833.256 383.4C837.246 383.4 839.416 381.79 839.416 379.27C839.416 377.52 838.506 376.26 835.426 375.56L829.196 374.09C822.966 372.69 819.956 369.75 819.956 364.22C819.956 357.43 825.696 353.37 833.676 353.37C841.446 353.37 846.696 357.85 846.766 364.57H838.646C838.576 361.63 836.616 359.74 833.326 359.74C829.966 359.74 828.006 361.28 828.006 363.87C828.006 365.83 829.546 367.09 832.486 367.79L838.716 369.26C844.526 370.59 847.466 373.25 847.466 378.57C847.466 385.57 841.516 389.91 832.976 389.91C824.366 389.91 818.906 385.29 818.906 378.5ZM869.439 389.91C859.149 389.91 851.939 382.42 851.939 371.71C851.939 360.86 859.009 353.37 869.159 353.37C879.519 353.37 886.099 360.3 886.099 371.08V373.67L860.059 373.74C860.689 379.83 863.909 382.91 869.579 382.91C874.269 382.91 877.349 381.09 878.329 377.8H886.239C884.769 385.36 878.469 389.91 869.439 389.91ZM869.229 360.37C864.189 360.37 861.109 363.1 860.269 368.28H877.629C877.629 363.52 874.339 360.37 869.229 360.37ZM901.254 343.71C901.254 349.59 897.334 354.14 891.734 354.84V351.48C894.744 350.92 896.914 349.03 896.914 346.58C896.354 346.79 895.724 346.93 894.954 346.93C892.434 346.93 890.404 345.18 890.404 342.1C890.404 339.02 892.504 336.85 895.584 336.85C898.874 336.85 901.254 339.51 901.254 343.71ZM915.114 343.71C915.114 349.59 911.194 354.14 905.594 354.84V351.48C908.604 350.92 910.704 349.03 910.704 346.58C910.144 346.79 909.514 346.93 908.744 346.93C906.224 346.93 904.264 345.18 904.264 342.1C904.264 339.02 906.364 336.85 909.444 336.85C912.734 336.85 915.114 339.51 915.114 343.71Z" fill="white"/>
<rect width="495" height="494.987" transform="translate(-247 68)" fill="black"/>
<path d="M-0.358072 242.933C0.486103 242.711 1.23261 243.029 1.9644 243.389C5.77992 245.282 16.0786 275.889 20.0747 282.525C31.4932 301.45 51.6076 301.271 68.5419 311.113C71.2377 312.676 75.1214 314.32 72.3989 318.053C70.4216 320.763 45.289 329.637 40.0232 332.208C13.2451 345.314 18.5121 360.604 6.08495 382.196C3.60995 386.496 0.429924 391.349 -3.3575 385.279C-11.4728 372.299 -12.4816 353.47 -24.5355 341.609C-36.6188 329.706 -55.8061 328.615 -68.5798 320.043C-70.2387 318.938 -71.8695 317.79 -72.3672 315.703C-72.105 314.444 -71.3451 313.408 -70.2935 312.689C-62.5247 307.464 -46.5028 303.067 -37.2677 298.422C-27.8266 293.681 -23.306 289.464 -18.0657 280.23C-14.9833 274.798 -3.48193 243.721 -0.38484 242.933H-0.358072Z" fill="#00BF53" fill-opacity="0.5"/>
<path d="M0.453496 167.416C-81.1921 167.416 -147.617 233.841 -147.617 315.486C-147.617 341.641 -140.802 366.235 -128.844 387.579C-122.831 375.883 -112.269 366.926 -99.495 363C-106.38 348.595 -110.237 332.476 -110.237 315.472C-110.237 254.44 -60.58 204.796 0.438798 204.796C11.2632 204.796 21.7425 206.359 31.6398 209.262C34.8199 195.852 43.4877 184.558 55.1269 177.881C38.1926 171.121 19.7371 167.402 0.438798 167.402L0.453496 167.416ZM126.101 237.214C121.539 250.057 111.792 260.452 99.392 265.871C106.912 280.802 111.142 297.653 111.142 315.486C111.142 376.52 61.487 426.162 0.466892 426.162C-12.5275 426.162 -25.0243 423.909 -36.6233 419.775C-39.2495 433.02 -47.1709 444.355 -58.0916 451.474C-40.1204 459.244 -20.3244 463.556 0.466892 463.556C82.1125 463.556 148.537 397.132 148.537 315.486C148.537 286.774 140.326 259.954 126.101 237.214Z" fill="#00BF53" fill-opacity="0.5"/>
<path d="M109.612 220.709C109.612 233.98 100.986 245.233 89.0416 249.159C86.097 250.126 82.9451 250.652 79.67 250.652C63.1223 250.652 49.7266 237.242 49.7266 220.709C49.7266 219.285 49.8229 217.888 50.0169 216.533C52.049 201.976 64.5458 190.779 79.67 190.779C79.8493 190.779 80.0286 190.779 80.2092 190.779C94.5307 191.028 106.405 201.327 109.06 214.93C109.42 216.81 109.612 218.731 109.612 220.709Z" fill="#00BF53" fill-opacity="0.5"/>
<path d="M195.897 163.497C191.474 176.008 182.128 186.182 170.211 191.74C195.606 226.479 210.619 269.266 210.619 315.493C210.619 431.353 116.367 525.606 0.506677 525.606C-38.3254 525.606 -74.724 515.017 -105.966 496.575C-109.505 509.321 -118.007 519.979 -129.288 526.338C-90.6629 550.213 -46.0661 562.987 0.493306 562.987C66.5999 562.987 128.753 537.245 175.507 490.492C222.245 443.753 248 381.6 248 315.479C248 259.712 229.684 206.753 195.883 163.483L195.897 163.497ZM0.506677 105.38C37.4859 105.38 72.2683 114.988 102.487 131.84C106.58 119.177 115.662 108.753 127.413 102.892C89.4515 80.1514 45.9196 68 0.506677 68C-65.5999 68 -127.753 93.7405 -174.506 140.494C-221.246 187.233 -247 249.387 -247 315.507C-247 369.339 -229.927 420.528 -198.367 462.927C-192.962 451.066 -182.994 441.734 -170.705 437.172C-195.201 402.821 -209.62 360.809 -209.62 315.507C-209.62 199.647 -115.367 105.394 0.493306 105.394L0.506677 105.38Z" fill="#00BF53" fill-opacity="0.5"/>
<path d="M181.496 146.668V147.027C181.496 161.418 172.025 173.597 158.962 177.661C155.948 178.601 152.741 179.099 149.424 179.099C131.701 179.099 117.352 164.736 117.352 147.027C117.352 145.064 117.531 143.156 117.876 141.29C120.364 127.438 131.756 116.683 145.925 115.149C147.073 115.024 148.248 114.955 149.424 114.955C167.021 114.955 181.302 129.111 181.496 146.668Z" fill="#00BF53" fill-opacity="0.5"/>
</g>
<defs>
<clipPath id="clip0_1354_1127">
<rect width="1200" height="630" fill="white"/>
</clipPath>
</defs>
</svg>
